<svg width="723" height="1024" viewBox="0 0 723 1024" fill="none" xmlns="http://www.w3.org/2000/svg">
<path d="M267.728 1068.55C263.862 1068.6 260.691 1065.5 260.644 1061.64L246.87 -79.3298C246.823 -83.1955 249.919 -86.3686 253.785 -86.4171L607.498 -90.8525C614.641 -90.942 617.242 -81.4861 611.061 -77.9038V-77.9038C487.195 -6.11697 437.471 147.579 495.84 278.247L608.586 530.651V530.651C671.237 687.674 687.465 859.408 655.341 1025.43L648.324 1061.7C648.089 1062.91 647.033 1063.79 645.796 1063.81L267.728 1068.55Z" fill="#2F80ED"/>
<path d="M1.56636 1099.17C-2.29854 1099.26 -5.5064 1096.2 -5.59862 1092.34L-33.1639 -62.8955C-33.2561 -66.7604 -30.1977 -69.9683 -26.3328 -70.0605L411.571 -80.5094C419.07 -80.6883 421.498 -70.5141 414.768 -67.2009V-67.2009C270.046 4.04904 213.896 182.24 292.329 323.199L417.857 548.795V548.795C495.72 705.271 517.252 883.808 478.824 1054.31L471.617 1086.29C471.395 1087.27 470.531 1087.98 469.521 1088L1.56636 1099.17Z" fill="#090088"/>
</svg>
