<svg width="40" height="49" viewBox="0 0 40 49" fill="none" xmlns="http://www.w3.org/2000/svg">
<path d="M20.0002 12.973C23.5825 12.973 26.4866 10.0689 26.4866 6.48649C26.4866 2.9041 23.5825 0 20.0002 0C16.4178 0 13.5137 2.9041 13.5137 6.48649C13.5137 10.0689 16.4178 12.973 20.0002 12.973Z" fill="#FFCC00"/>
<path d="M8.15234 23.7933C10.1517 23.7897 12.653 23.7865 15.6757 23.7849V21.6216C15.6757 19.2334 17.6117 17.2973 20 17.2973C22.3882 17.2973 24.3243 19.2334 24.3243 21.6216V23.7849C27.347 23.7865 29.8483 23.7897 31.8477 23.7933C31.4832 21.6182 31.0066 19.8183 30.5937 18.4989C30.0384 16.7236 28.6142 15.3889 26.7496 15.0788C25.2306 14.8262 23.0159 14.5946 20.0005 14.5946C16.9849 14.5946 14.77 14.8262 13.2508 15.0788C11.386 15.3889 9.96153 16.7237 9.40607 18.4993C8.99332 19.8187 8.51688 21.6184 8.15234 23.7933Z" fill="#FFCC00"/>
<path d="M21.6216 21.6216C21.6216 20.7261 20.8956 20 20 20C19.1044 20 18.3784 20.7261 18.3784 21.6216V26.4871C9.33211 26.4939 4.19358 26.5572 2.57398 26.5809C1.72065 26.5933 0.630951 27.0672 0.270389 28.2563C0.1212 28.7483 0 29.4136 0 30.2703C0 31.1269 0.1212 31.7922 0.270389 32.2842C0.630962 33.4733 1.72066 33.9472 2.57398 33.9597C2.75418 33.9624 2.97795 33.9654 3.24581 33.969C3.86023 39.0628 4.41392 42.9945 4.69289 44.9084C4.91124 46.4064 6.14032 47.5532 7.65968 47.6538C9.99049 47.8083 15.1378 48.1081 20 48.1081C24.8622 48.1081 30.0095 47.8083 32.3403 47.6538C33.8598 47.5532 35.0888 46.4064 35.3071 44.9084C35.5861 42.9945 36.1398 39.0628 36.7542 33.969C37.0221 33.9654 37.2458 33.9624 37.4261 33.9597C38.2793 33.9472 39.3691 33.4733 39.7296 32.2842C39.8788 31.7922 40 31.1269 40 30.2703C40 29.4136 39.8788 28.7483 39.7296 28.2563C39.3691 27.0672 38.2793 26.5933 37.4261 26.5809C35.8064 26.5572 30.6679 26.4939 21.6216 26.4871V21.6216Z" fill="#FFCC00"/>
</svg>
