<svg width="38" height="40" viewBox="0 0 38 40" fill="none" xmlns="http://www.w3.org/2000/svg">
<path d="M11.2473 7.50104C11.2473 3.35833 14.6056 0 18.7483 0C22.8909 0 26.2494 3.35833 26.2494 7.50104C26.2494 11.2178 23.5461 14.3032 19.9984 14.8984V18.7485H27.4978C29.5686 18.7485 31.2475 20.4273 31.2475 22.4982V25.1015C34.7959 25.6957 37.5002 28.7817 37.5002 32.4991C37.5002 36.6418 34.142 40 29.9993 40C25.8564 40 22.4982 36.6418 22.4982 32.4991C22.4982 28.7827 25.2007 25.6977 28.7477 25.102V22.4982C28.7477 21.808 28.188 21.2483 27.4978 21.2483H9.99919C9.30889 21.2483 8.74929 21.808 8.74929 22.4982V25.1015C12.2978 25.6957 15.0021 28.7817 15.0021 32.4991C15.0021 36.6418 11.6437 40 7.50104 40C3.35833 40 0 36.6418 0 32.4991C0 28.7827 2.70253 25.6977 6.24949 25.102V22.4982C6.24949 20.4273 7.92828 18.7485 9.99919 18.7485H17.4986V14.8984C13.9507 14.3034 11.2473 11.2179 11.2473 7.50104Z" fill="#FCCB06"/>
</svg>
