<svg width="47" height="47" viewBox="0 0 47 47" fill="none" xmlns="http://www.w3.org/2000/svg">
<path d="M7.83333 25.4581H19.5833C20.6604 25.4581 21.5417 24.5768 21.5417 23.4998V7.83309C21.5417 6.75601 20.6604 5.87476 19.5833 5.87476H7.83333C6.75625 5.87476 5.875 6.75601 5.875 7.83309V23.4998C5.875 24.5768 6.75625 25.4581 7.83333 25.4581ZM7.83333 41.1248H19.5833C20.6604 41.1248 21.5417 40.2435 21.5417 39.1664V31.3331C21.5417 30.256 20.6604 29.3748 19.5833 29.3748H7.83333C6.75625 29.3748 5.875 30.256 5.875 31.3331V39.1664C5.875 40.2435 6.75625 41.1248 7.83333 41.1248ZM27.4167 41.1248H39.1667C40.2437 41.1248 41.125 40.2435 41.125 39.1664V23.4998C41.125 22.4227 40.2437 21.5414 39.1667 21.5414H27.4167C26.3396 21.5414 25.4583 22.4227 25.4583 23.4998V39.1664C25.4583 40.2435 26.3396 41.1248 27.4167 41.1248ZM25.4583 7.83309V15.6664C25.4583 16.7435 26.3396 17.6248 27.4167 17.6248H39.1667C40.2437 17.6248 41.125 16.7435 41.125 15.6664V7.83309C41.125 6.75601 40.2437 5.87476 39.1667 5.87476H27.4167C26.3396 5.87476 25.4583 6.75601 25.4583 7.83309Z" fill="#FCCB06"/>
</svg>
