<svg width="40" height="40" viewBox="0 0 40 40" fill="none" xmlns="http://www.w3.org/2000/svg">
<path d="M5.71484 5.71429C5.71484 2.55837 8.27317 0 11.429 0C14.5849 0 17.1432 2.55837 17.1432 5.71429C17.1432 7.55646 16.2715 9.19503 14.9181 10.24C14.8774 10.27 14.837 10.3004 14.7968 10.3311C13.8524 11.0212 12.6883 11.4286 11.429 11.4286C8.27317 11.4286 5.71484 8.8702 5.71484 5.71429Z" fill="#FFCC00"/>
<path d="M25.0806 10.24C25.1213 10.27 25.1617 10.3004 25.2019 10.3312C26.1463 11.0213 27.3105 11.4286 28.5697 11.4286C31.7256 11.4286 34.2839 8.8702 34.2839 5.71429C34.2839 2.55837 31.7256 0 28.5697 0C25.4138 0 22.8555 2.55837 22.8555 5.71429C22.8555 7.55646 23.7272 9.19503 25.0806 10.24Z" fill="#FFCC00"/>
<path d="M15.0496 14.2857C16.0376 12.5777 17.8843 11.4286 19.9993 11.4286C22.1144 11.4286 23.9611 12.5777 24.9491 14.2857C25.4353 15.1262 25.7135 16.102 25.7135 17.1429C25.7135 20.2988 23.1552 22.8572 19.9993 22.8572C16.8435 22.8572 14.2852 20.2988 14.2852 17.1429C14.2852 16.102 14.5634 15.1262 15.0496 14.2857Z" fill="#FFCC00"/>
<path d="M4.28559 14.2856H11.9161C11.6002 15.1793 11.4284 16.141 11.4284 17.1428C11.4284 19.3381 12.2537 21.3406 13.6109 22.8571H12.8569C9.75653 22.8571 7.1176 24.8325 6.12981 27.5931C5.15852 27.1979 4.25987 26.6816 3.46323 26.0422C1.31132 24.315 0 21.7602 0 18.5714C0 16.2045 1.91871 14.2856 4.28559 14.2856Z" fill="#FFCC00"/>
<path d="M27.1446 22.8571C30.2448 22.8571 32.8839 24.8324 33.8716 27.5931C34.8431 27.1979 35.7416 26.6816 36.5385 26.0422C38.6901 24.315 40.0015 21.7602 40.0015 18.5714C40.0015 16.2044 38.0827 14.2856 35.7159 14.2856H28.0855C28.4012 15.1793 28.5732 16.141 28.5732 17.1428C28.5732 19.3381 27.7477 21.3406 26.3906 22.8571H27.1446Z" fill="#FFCC00"/>
<path d="M31.1045 28.3658C31.3122 28.8695 31.4271 29.4215 31.4271 30.0001C31.4271 33.1889 30.1157 35.7438 27.964 37.4709C25.846 39.1709 23.0074 40.0001 19.9987 40.0001C16.9899 40.0001 14.1514 39.1709 12.0335 37.4709C9.88163 35.7438 8.57031 33.1889 8.57031 30.0001C8.57031 29.4215 8.68502 28.8695 8.89294 28.3658C9.53538 26.8095 11.0677 25.7144 12.8559 25.7144H27.1414C28.9297 25.7144 30.462 26.8095 31.1045 28.3658Z" fill="#FFCC00"/>
</svg>
