<svg width="40" height="40" viewBox="0 0 40 40" fill="none" xmlns="http://www.w3.org/2000/svg">
<path d="M35.7143 0H4.28571C1.91964 0 0 1.91964 0 4.28571V35.7143C0 38.0804 1.91964 40 4.28571 40H35.7143C38.0804 40 40 38.0804 40 35.7143V4.28571C40 1.91964 38.0804 0 35.7143 0ZM14.2857 30C14.2857 30.7893 13.6464 31.4286 12.8571 31.4286H10C9.21071 31.4286 8.57143 30.7893 8.57143 30V18.5714C8.57143 17.7821 9.21071 17.1429 10 17.1429H12.8571C13.6464 17.1429 14.2857 17.7821 14.2857 18.5714V30ZM22.8571 30C22.8571 30.7893 22.2179 31.4286 21.4286 31.4286H18.5714C17.7821 31.4286 17.1429 30.7893 17.1429 30V10C17.1429 9.21071 17.7821 8.57143 18.5714 8.57143H21.4286C22.2179 8.57143 22.8571 9.21071 22.8571 10V30ZM31.4286 30C31.4286 30.7893 30.7893 31.4286 30 31.4286H27.1429C26.3536 31.4286 25.7143 30.7893 25.7143 30V24.2857C25.7143 23.4964 26.3536 22.8571 27.1429 22.8571H30C30.7893 22.8571 31.4286 23.4964 31.4286 24.2857V30Z" fill="#FFCC00"/>
</svg>
