<svg width="40" height="40" viewBox="0 0 40 40" fill="none" xmlns="http://www.w3.org/2000/svg">
<path d="M40 11.4286V32.8571C40 36.6443 37.0528 39.743 33.3268 39.9848L32.8571 40H7.14286C3.35574 40 0.25703 37.0528 0.0151934 33.3268L0 32.8571V11.4286H40ZM11.4286 25.7143C9.85062 25.7143 8.57143 26.9935 8.57143 28.5714C8.57143 30.1494 9.85062 31.4286 11.4286 31.4286C13.0065 31.4286 14.2857 30.1494 14.2857 28.5714C14.2857 26.9935 13.0065 25.7143 11.4286 25.7143ZM20 25.7143C18.422 25.7143 17.1429 26.9935 17.1429 28.5714C17.1429 30.1494 18.422 31.4286 20 31.4286C21.578 31.4286 22.8571 30.1494 22.8571 28.5714C22.8571 26.9935 21.578 25.7143 20 25.7143ZM11.4286 17.1429C9.85062 17.1429 8.57143 18.422 8.57143 20C8.57143 21.578 9.85062 22.8571 11.4286 22.8571C13.0065 22.8571 14.2857 21.578 14.2857 20C14.2857 18.422 13.0065 17.1429 11.4286 17.1429ZM20 17.1429C18.422 17.1429 17.1429 18.422 17.1429 20C17.1429 21.578 18.422 22.8571 20 22.8571C21.578 22.8571 22.8571 21.578 22.8571 20C22.8571 18.422 21.578 17.1429 20 17.1429ZM28.5714 17.1429C26.9935 17.1429 25.7143 18.422 25.7143 20C25.7143 21.578 26.9935 22.8571 28.5714 22.8571C30.1494 22.8571 31.4286 21.578 31.4286 20C31.4286 18.422 30.1494 17.1429 28.5714 17.1429ZM32.8571 0C36.6443 0 39.743 2.94722 39.9848 6.67321L40 7.14286V8.57143H0V7.14286C0 3.35576 2.94724 0.257032 6.67321 0.0151934L7.14286 0H32.8571Z" fill="#FCCB06"/>
</svg>
