<svg width="186" height="74" viewBox="0 0 186 74" fill="none" xmlns="http://www.w3.org/2000/svg">
<path d="M20.485 54.5V65H18.61V63.665C17.9 64.655 16.8 65.15 15.31 65.15C14.07 65.15 13.095 64.765 12.385 63.995C11.675 63.215 11.32 62.115 11.32 60.695V54.5H13.27V60.62C13.27 61.55 13.49 62.255 13.93 62.735C14.38 63.205 14.995 63.44 15.775 63.44C16.615 63.44 17.285 63.19 17.785 62.69C18.285 62.18 18.535 61.425 18.535 60.425V54.5H20.485ZM26.5595 65.15C25.7495 65.15 24.9645 65.035 24.2045 64.805C23.4545 64.575 22.8595 64.27 22.4195 63.89L23.0945 62.375C23.5245 62.715 24.0495 62.995 24.6695 63.215C25.2995 63.425 25.9295 63.53 26.5595 63.53C27.3395 63.53 27.9195 63.405 28.2995 63.155C28.6895 62.905 28.8845 62.575 28.8845 62.165C28.8845 61.865 28.7745 61.62 28.5545 61.43C28.3445 61.23 28.0745 61.075 27.7445 60.965C27.4145 60.855 26.9645 60.73 26.3945 60.59C25.5945 60.4 24.9445 60.21 24.4445 60.02C23.9545 59.83 23.5295 59.535 23.1695 59.135C22.8195 58.725 22.6445 58.175 22.6445 57.485C22.6445 56.905 22.7995 56.38 23.1095 55.91C23.4295 55.43 23.9045 55.05 24.5345 54.77C25.1745 54.49 25.9545 54.35 26.8745 54.35C27.5145 54.35 28.1445 54.43 28.7645 54.59C29.3845 54.75 29.9195 54.98 30.3695 55.28L29.7545 56.795C29.2945 56.525 28.8145 56.32 28.3145 56.18C27.8145 56.04 27.3295 55.97 26.8595 55.97C26.0895 55.97 25.5145 56.1 25.1345 56.36C24.7645 56.62 24.5795 56.965 24.5795 57.395C24.5795 57.695 24.6845 57.94 24.8945 58.13C25.1145 58.32 25.3895 58.47 25.7195 58.58C26.0495 58.69 26.4995 58.815 27.0695 58.955C27.8495 59.135 28.4895 59.325 28.9895 59.525C29.4895 59.715 29.9145 60.01 30.2645 60.41C30.6245 60.81 30.8045 61.35 30.8045 62.03C30.8045 62.61 30.6445 63.135 30.3245 63.605C30.0145 64.075 29.5395 64.45 28.8995 64.73C28.2595 65.01 27.4795 65.15 26.5595 65.15ZM36.3681 63.515C37.2381 63.515 37.9631 63.225 38.5431 62.645L39.5331 63.8C39.1831 64.23 38.7331 64.555 38.1831 64.775C37.6331 64.995 37.0131 65.105 36.3231 65.105C35.4431 65.105 34.6681 64.93 33.9981 64.58C33.3281 64.23 32.8081 63.745 32.4381 63.125C32.0781 62.495 31.8981 61.785 31.8981 60.995C31.8981 60.215 32.0731 59.515 32.4231 58.895C32.7831 58.265 33.2731 57.775 33.8931 57.425C34.5231 57.075 35.2331 56.9 36.0231 56.9C36.7731 56.9 37.4531 57.065 38.0631 57.395C38.6831 57.715 39.1731 58.18 39.5331 58.79C39.8931 59.39 40.0731 60.095 40.0731 60.905L33.9381 62.105C34.1281 62.565 34.4331 62.915 34.8531 63.155C35.2731 63.395 35.7781 63.515 36.3681 63.515ZM36.0231 58.4C35.3331 58.4 34.7731 58.625 34.3431 59.075C33.9231 59.525 33.7131 60.13 33.7131 60.89V60.905L38.2431 60.035C38.1131 59.545 37.8481 59.15 37.4481 58.85C37.0581 58.55 36.5831 58.4 36.0231 58.4ZM46.3745 54.5C47.2845 54.5 48.0745 54.65 48.7445 54.95C49.4245 55.25 49.9445 55.68 50.3045 56.24C50.6645 56.8 50.8445 57.465 50.8445 58.235C50.8445 58.995 50.6645 59.66 50.3045 60.23C49.9445 60.79 49.4245 61.22 48.7445 61.52C48.0745 61.82 47.2845 61.97 46.3745 61.97H44.0045V65H42.0545V54.5H46.3745ZM46.2845 60.32C47.1345 60.32 47.7795 60.14 48.2195 59.78C48.6595 59.42 48.8795 58.905 48.8795 58.235C48.8795 57.565 48.6595 57.05 48.2195 56.69C47.7795 56.33 47.1345 56.15 46.2845 56.15H44.0045V60.32H46.2845ZM66.6838 54.5L62.1088 65H60.1888L55.5988 54.5H57.7138L61.2088 62.6L64.7338 54.5H66.6838ZM70.6113 65.105C69.8013 65.105 69.0713 64.93 68.4213 64.58C67.7713 64.23 67.2613 63.745 66.8913 63.125C66.5313 62.495 66.3513 61.785 66.3513 60.995C66.3513 60.205 66.5313 59.5 66.8913 58.88C67.2613 58.26 67.7713 57.775 68.4213 57.425C69.0713 57.075 69.8013 56.9 70.6113 56.9C71.4313 56.9 72.1663 57.075 72.8163 57.425C73.4663 57.775 73.9713 58.26 74.3313 58.88C74.7013 59.5 74.8863 60.205 74.8863 60.995C74.8863 61.785 74.7013 62.495 74.3313 63.125C73.9713 63.745 73.4663 64.23 72.8163 64.58C72.1663 64.93 71.4313 65.105 70.6113 65.105ZM70.6113 63.5C71.3013 63.5 71.8713 63.27 72.3213 62.81C72.7713 62.35 72.9963 61.745 72.9963 60.995C72.9963 60.245 72.7713 59.64 72.3213 59.18C71.8713 58.72 71.3013 58.49 70.6113 58.49C69.9213 58.49 69.3513 58.72 68.9013 59.18C68.4613 59.64 68.2413 60.245 68.2413 60.995C68.2413 61.745 68.4613 62.35 68.9013 62.81C69.3513 63.27 69.9213 63.5 70.6113 63.5ZM81.1792 64.565C80.9592 64.745 80.6892 64.88 80.3692 64.97C80.0592 65.06 79.7292 65.105 79.3792 65.105C78.4992 65.105 77.8192 64.875 77.3392 64.415C76.8592 63.955 76.6192 63.285 76.6192 62.405V55.22H78.4942V57.05H80.6392V58.55H78.4942V62.36C78.4942 62.75 78.5892 63.05 78.7792 63.26C78.9792 63.46 79.2542 63.56 79.6042 63.56C80.0242 63.56 80.3742 63.45 80.6542 63.23L81.1792 64.565ZM82.729 56.99H84.604V65H82.729V56.99ZM83.674 55.67C83.334 55.67 83.049 55.565 82.819 55.355C82.589 55.135 82.474 54.865 82.474 54.545C82.474 54.225 82.589 53.96 82.819 53.75C83.049 53.53 83.334 53.42 83.674 53.42C84.014 53.42 84.299 53.525 84.529 53.735C84.759 53.935 84.874 54.19 84.874 54.5C84.874 54.83 84.759 55.11 84.529 55.34C84.309 55.56 84.024 55.67 83.674 55.67ZM91.61 56.9C92.62 56.9 93.43 57.195 94.04 57.785C94.65 58.375 94.955 59.25 94.955 60.41V65H93.08V60.65C93.08 59.95 92.915 59.425 92.585 59.075C92.255 58.715 91.785 58.535 91.175 58.535C90.485 58.535 89.94 58.745 89.54 59.165C89.14 59.575 88.94 60.17 88.94 60.95V65H87.065V56.99H88.85V58.025C89.16 57.655 89.55 57.375 90.02 57.185C90.49 56.995 91.02 56.9 91.61 56.9ZM105.357 56.99V63.785C105.357 66.605 103.917 68.015 101.037 68.015C100.267 68.015 99.5368 67.915 98.8468 67.715C98.1568 67.525 97.5868 67.245 97.1368 66.875L97.9768 65.465C98.3268 65.755 98.7668 65.985 99.2968 66.155C99.8368 66.335 100.382 66.425 100.932 66.425C101.812 66.425 102.457 66.225 102.867 65.825C103.277 65.425 103.482 64.815 103.482 63.995V63.575C103.162 63.925 102.772 64.19 102.312 64.37C101.852 64.55 101.347 64.64 100.797 64.64C100.037 64.64 99.3468 64.48 98.7268 64.16C98.1168 63.83 97.6318 63.37 97.2718 62.78C96.9218 62.19 96.7468 61.515 96.7468 60.755C96.7468 59.995 96.9218 59.325 97.2718 58.745C97.6318 58.155 98.1168 57.7 98.7268 57.38C99.3468 57.06 100.037 56.9 100.797 56.9C101.377 56.9 101.902 56.995 102.372 57.185C102.852 57.375 103.252 57.665 103.572 58.055V56.99H105.357ZM101.082 63.05C101.792 63.05 102.372 62.84 102.822 62.42C103.282 61.99 103.512 61.435 103.512 60.755C103.512 60.085 103.282 59.54 102.822 59.12C102.372 58.7 101.792 58.49 101.082 58.49C100.362 58.49 99.7718 58.7 99.3118 59.12C98.8618 59.54 98.6368 60.085 98.6368 60.755C98.6368 61.435 98.8618 61.99 99.3118 62.42C99.7718 62.84 100.362 63.05 101.082 63.05ZM115.402 65.15C114.592 65.15 113.807 65.035 113.047 64.805C112.297 64.575 111.702 64.27 111.262 63.89L111.937 62.375C112.367 62.715 112.892 62.995 113.512 63.215C114.142 63.425 114.772 63.53 115.402 63.53C116.182 63.53 116.762 63.405 117.142 63.155C117.532 62.905 117.727 62.575 117.727 62.165C117.727 61.865 117.617 61.62 117.397 61.43C117.187 61.23 116.917 61.075 116.587 60.965C116.257 60.855 115.807 60.73 115.237 60.59C114.437 60.4 113.787 60.21 113.287 60.02C112.797 59.83 112.372 59.535 112.012 59.135C111.662 58.725 111.487 58.175 111.487 57.485C111.487 56.905 111.642 56.38 111.952 55.91C112.272 55.43 112.747 55.05 113.377 54.77C114.017 54.49 114.797 54.35 115.717 54.35C116.357 54.35 116.987 54.43 117.607 54.59C118.227 54.75 118.762 54.98 119.212 55.28L118.597 56.795C118.137 56.525 117.657 56.32 117.157 56.18C116.657 56.04 116.172 55.97 115.702 55.97C114.932 55.97 114.357 56.1 113.977 56.36C113.607 56.62 113.422 56.965 113.422 57.395C113.422 57.695 113.527 57.94 113.737 58.13C113.957 58.32 114.232 58.47 114.562 58.58C114.892 58.69 115.342 58.815 115.912 58.955C116.692 59.135 117.332 59.325 117.832 59.525C118.332 59.715 118.757 60.01 119.107 60.41C119.467 60.81 119.647 61.35 119.647 62.03C119.647 62.61 119.487 63.135 119.167 63.605C118.857 64.075 118.382 64.45 117.742 64.73C117.102 65.01 116.322 65.15 115.402 65.15ZM129.156 56.99V63.785C129.156 66.605 127.771 68.015 125.001 68.015C124.271 68.015 123.571 67.915 122.901 67.715C122.241 67.525 121.696 67.245 121.266 66.875L122.106 65.465C122.446 65.755 122.861 65.985 123.351 66.155C123.841 66.325 124.356 66.41 124.896 66.41C125.716 66.41 126.316 66.21 126.696 65.81C127.086 65.42 127.281 64.815 127.281 63.995V63.62C126.981 63.95 126.616 64.205 126.186 64.385C125.756 64.555 125.291 64.64 124.791 64.64C123.721 64.64 122.876 64.345 122.256 63.755C121.646 63.165 121.341 62.28 121.341 61.1V56.99H123.216V60.86C123.216 61.57 123.376 62.105 123.696 62.465C124.026 62.815 124.491 62.99 125.091 62.99C125.761 62.99 126.291 62.785 126.681 62.375C127.081 61.965 127.281 61.37 127.281 60.59V56.99H129.156ZM134.086 65.105C133.436 65.105 132.801 65.02 132.181 64.85C131.561 64.68 131.066 64.465 130.696 64.205L131.416 62.78C131.776 63.02 132.206 63.215 132.706 63.365C133.216 63.505 133.716 63.575 134.206 63.575C135.326 63.575 135.886 63.28 135.886 62.69C135.886 62.41 135.741 62.215 135.451 62.105C135.171 61.995 134.716 61.89 134.086 61.79C133.426 61.69 132.886 61.575 132.466 61.445C132.056 61.315 131.696 61.09 131.386 60.77C131.086 60.44 130.936 59.985 130.936 59.405C130.936 58.645 131.251 58.04 131.881 57.59C132.521 57.13 133.381 56.9 134.461 56.9C135.011 56.9 135.561 56.965 136.111 57.095C136.661 57.215 137.111 57.38 137.461 57.59L136.741 59.015C136.061 58.615 135.296 58.415 134.446 58.415C133.896 58.415 133.476 58.5 133.186 58.67C132.906 58.83 132.766 59.045 132.766 59.315C132.766 59.615 132.916 59.83 133.216 59.96C133.526 60.08 134.001 60.195 134.641 60.305C135.281 60.405 135.806 60.52 136.216 60.65C136.626 60.78 136.976 61 137.266 61.31C137.566 61.62 137.716 62.06 137.716 62.63C137.716 63.38 137.391 63.98 136.741 64.43C136.091 64.88 135.206 65.105 134.086 65.105ZM143.831 64.565C143.611 64.745 143.341 64.88 143.021 64.97C142.711 65.06 142.381 65.105 142.031 65.105C141.151 65.105 140.471 64.875 139.991 64.415C139.511 63.955 139.271 63.285 139.271 62.405V55.22H141.146V57.05H143.291V58.55H141.146V62.36C141.146 62.75 141.241 63.05 141.431 63.26C141.631 63.46 141.906 63.56 142.256 63.56C142.676 63.56 143.026 63.45 143.306 63.23L143.831 64.565ZM148.927 63.515C149.797 63.515 150.522 63.225 151.102 62.645L152.092 63.8C151.742 64.23 151.292 64.555 150.742 64.775C150.192 64.995 149.572 65.105 148.882 65.105C148.002 65.105 147.227 64.93 146.557 64.58C145.887 64.23 145.367 63.745 144.997 63.125C144.637 62.495 144.457 61.785 144.457 60.995C144.457 60.215 144.632 59.515 144.982 58.895C145.342 58.265 145.832 57.775 146.452 57.425C147.082 57.075 147.792 56.9 148.582 56.9C149.332 56.9 150.012 57.065 150.622 57.395C151.242 57.715 151.732 58.18 152.092 58.79C152.452 59.39 152.632 60.095 152.632 60.905L146.497 62.105C146.687 62.565 146.992 62.915 147.412 63.155C147.832 63.395 148.337 63.515 148.927 63.515ZM148.582 58.4C147.892 58.4 147.332 58.625 146.902 59.075C146.482 59.525 146.272 60.13 146.272 60.89V60.905L150.802 60.035C150.672 59.545 150.407 59.15 150.007 58.85C149.617 58.55 149.142 58.4 148.582 58.4ZM164.543 56.9C165.553 56.9 166.353 57.195 166.943 57.785C167.533 58.365 167.828 59.24 167.828 60.41V65H165.953V60.65C165.953 59.95 165.798 59.425 165.488 59.075C165.178 58.715 164.733 58.535 164.153 58.535C163.523 58.535 163.018 58.745 162.638 59.165C162.258 59.575 162.068 60.165 162.068 60.935V65H160.193V60.65C160.193 59.95 160.038 59.425 159.728 59.075C159.418 58.715 158.973 58.535 158.393 58.535C157.753 58.535 157.243 58.74 156.863 59.15C156.493 59.56 156.308 60.155 156.308 60.935V65H154.433V56.99H156.218V58.01C156.518 57.65 156.893 57.375 157.343 57.185C157.793 56.995 158.293 56.9 158.843 56.9C159.443 56.9 159.973 57.015 160.433 57.245C160.903 57.465 161.273 57.795 161.543 58.235C161.873 57.815 162.298 57.49 162.818 57.26C163.338 57.02 163.913 56.9 164.543 56.9Z" fill="white"/>
<path d="M26.506 41.588C22.166 41.588 18.778 40.398 16.342 38.018C13.906 35.638 12.688 32.264 12.688 27.896V11.6H21.004V27.644C21.004 30.164 21.494 31.97 22.474 33.062C23.482 34.154 24.854 34.7 26.59 34.7C28.326 34.7 29.684 34.154 30.664 33.062C31.644 31.97 32.134 30.164 32.134 27.644V11.6H40.324V27.896C40.324 32.264 39.106 35.638 36.67 38.018C34.234 40.398 30.846 41.588 26.506 41.588ZM45.0336 32.096V25.964H57.2976V32.096H45.0336ZM67.4665 41L58.1005 18.236H66.2905L73.7665 37.262H69.6505L77.5045 18.236H85.1065L75.6985 41H67.4665ZM97.9782 41.378C95.4862 41.378 93.2742 40.874 91.3422 39.866C89.4102 38.858 87.8842 37.472 86.7642 35.708C85.6722 33.916 85.1262 31.872 85.1262 29.576C85.1262 27.28 85.6722 25.25 86.7642 23.486C87.8842 21.722 89.4102 20.35 91.3422 19.37C93.2742 18.362 95.4862 17.858 97.9782 17.858C100.47 17.858 102.682 18.362 104.614 19.37C106.574 20.35 108.1 21.722 109.192 23.486C110.284 25.25 110.83 27.28 110.83 29.576C110.83 31.872 110.284 33.916 109.192 35.708C108.1 37.472 106.574 38.858 104.614 39.866C102.682 40.874 100.47 41.378 97.9782 41.378ZM97.9782 35.036C98.9022 35.036 99.7142 34.826 100.414 34.406C101.142 33.986 101.716 33.37 102.136 32.558C102.556 31.718 102.766 30.724 102.766 29.576C102.766 28.428 102.556 27.462 102.136 26.678C101.716 25.866 101.142 25.25 100.414 24.83C99.7142 24.41 98.9022 24.2 97.9782 24.2C97.0822 24.2 96.2702 24.41 95.5422 24.83C94.8422 25.25 94.2682 25.866 93.8202 26.678C93.4002 27.462 93.1902 28.428 93.1902 29.576C93.1902 30.724 93.4002 31.718 93.8202 32.558C94.2682 33.37 94.8422 33.986 95.5422 34.406C96.2702 34.826 97.0822 35.036 97.9782 35.036ZM124.691 41.378C121.779 41.378 119.511 40.664 117.887 39.236C116.263 37.78 115.451 35.596 115.451 32.684V13.154H123.431V32.6C123.431 33.412 123.655 34.056 124.103 34.532C124.551 34.98 125.125 35.204 125.825 35.204C126.777 35.204 127.589 34.966 128.261 34.49L130.235 40.076C129.563 40.524 128.737 40.846 127.757 41.042C126.777 41.266 125.755 41.378 124.691 41.378ZM112.133 25.04V19.076H128.639V25.04H112.133ZM144.584 41.378C141.896 41.378 139.544 40.874 137.528 39.866C135.54 38.83 133.986 37.43 132.866 35.666C131.774 33.874 131.228 31.844 131.228 29.576C131.228 27.308 131.76 25.292 132.824 23.528C133.916 21.736 135.414 20.35 137.318 19.37C139.222 18.362 141.364 17.858 143.744 17.858C145.984 17.858 148.028 18.32 149.876 19.244C151.724 20.14 153.194 21.47 154.286 23.234C155.378 24.998 155.924 27.14 155.924 29.66C155.924 29.94 155.91 30.262 155.882 30.626C155.854 30.99 155.826 31.326 155.798 31.634H137.78V27.434H151.556L148.532 28.61C148.56 27.574 148.364 26.678 147.944 25.922C147.552 25.166 146.992 24.578 146.264 24.158C145.564 23.738 144.738 23.528 143.786 23.528C142.834 23.528 141.994 23.738 141.266 24.158C140.566 24.578 140.02 25.18 139.628 25.964C139.236 26.72 139.04 27.616 139.04 28.652V29.87C139.04 30.99 139.264 31.956 139.712 32.768C140.188 33.58 140.86 34.21 141.728 34.658C142.596 35.078 143.632 35.288 144.836 35.288C145.956 35.288 146.908 35.134 147.692 34.826C148.504 34.49 149.302 33.986 150.086 33.314L154.286 37.682C153.194 38.886 151.85 39.81 150.254 40.454C148.658 41.07 146.768 41.378 144.584 41.378Z" fill="white"/>
<line x1="1" y1="6" x2="0.999997" y2="74" stroke="white" stroke-width="2"/>
</svg>
