<svg width="40" height="32" viewBox="0 0 40 32" fill="none" xmlns="http://www.w3.org/2000/svg">
<path d="M38.1603 23.3337C38.3228 22.4524 38.3228 21.5523 38.1603 20.6709L39.7729 19.7396C39.9605 19.6333 40.0417 19.4145 39.9792 19.2083C39.5604 17.8581 38.8416 16.633 37.904 15.6204C37.7602 15.4641 37.529 15.4266 37.3414 15.5329L35.7288 16.4642C35.0474 15.8829 34.2661 15.4329 33.4223 15.1328V13.2702C33.4223 13.0576 33.2723 12.8701 33.066 12.8264C31.6721 12.5138 30.2532 12.5263 28.9281 12.8264C28.7218 12.8701 28.5718 13.0576 28.5718 13.2702V15.1328C27.7279 15.4329 26.9466 15.8829 26.2653 16.4642L24.6526 15.5329C24.4713 15.4266 24.2338 15.4641 24.09 15.6204C23.1524 16.633 22.4336 17.8581 22.0148 19.2083C21.9523 19.4145 22.0398 19.6333 22.2211 19.7396L23.8338 20.6709C23.6712 21.5523 23.6712 22.4524 23.8338 23.3337L22.2211 24.2651C22.0336 24.3713 21.9523 24.5901 22.0148 24.7964C22.4336 26.1465 23.1524 27.3654 24.09 28.3842C24.2338 28.5405 24.4651 28.578 24.6526 28.4718L26.2653 27.5404C26.9466 28.1217 27.7279 28.5718 28.5718 28.8718V30.7345C28.5718 30.947 28.7218 31.1345 28.9281 31.1783C30.3219 31.4908 31.7408 31.4783 33.066 31.1783C33.2723 31.1345 33.4223 30.947 33.4223 30.7345V28.8718C34.2661 28.5718 35.0474 28.1217 35.7288 27.5404L37.3414 28.4718C37.5227 28.578 37.7602 28.5405 37.904 28.3842C38.8416 27.3716 39.5604 26.1465 39.9792 24.7964C40.0417 24.5901 39.9542 24.3713 39.7729 24.2651L38.1603 23.3337ZM31.0033 25.0339C29.3281 25.0339 27.9717 23.6712 27.9717 22.0023C27.9717 20.3334 29.3343 18.9708 31.0033 18.9708C32.6722 18.9708 34.0348 20.3334 34.0348 22.0023C34.0348 23.6712 32.6784 25.0339 31.0033 25.0339ZM14.0015 16.0017C18.4207 16.0017 22.0023 12.4201 22.0023 8.00084C22.0023 3.58163 18.4207 0 14.0015 0C9.58226 0 6.00063 3.58163 6.00063 8.00084C6.00063 12.4201 9.58226 16.0017 14.0015 16.0017ZM26.5778 30.1594C26.434 30.0844 26.2903 29.9969 26.1528 29.9157L25.659 30.2032C25.2839 30.4157 24.8589 30.5345 24.4338 30.5345C23.7525 30.5345 23.0962 30.2469 22.6274 29.7469C21.4835 28.5093 20.6084 27.0028 20.1146 25.3964C19.7708 24.2901 20.2334 23.1212 21.2335 22.5399L21.7273 22.2523C21.721 22.0898 21.721 21.9273 21.7273 21.7648L21.2335 21.4773C20.2334 20.9022 19.7708 19.7271 20.1146 18.6207C20.1709 18.4394 20.2521 18.2582 20.3146 18.0769C20.0771 18.0582 19.8458 18.0019 19.6021 18.0019H18.5582C17.1706 18.6395 15.6266 19.002 14.0015 19.002C12.3763 19.002 10.8386 18.6395 9.44475 18.0019H8.40089C3.7629 18.0019 0 21.7648 0 26.4028V29.0031C0 30.6595 1.34389 32.0034 3.00032 32.0034H25.0026C25.634 32.0034 26.2215 31.8034 26.7028 31.4721C26.6278 31.2345 26.5778 30.9908 26.5778 30.7345V30.1594Z" fill="#FCCB06"/>
</svg>
