<svg width="40" height="40" viewBox="0 0 40 40" fill="none" xmlns="http://www.w3.org/2000/svg">
<path d="M15.0007 18.3333C16.3192 18.3333 17.6081 17.9423 18.7045 17.2098C19.8008 16.4773 20.6553 15.4361 21.1598 14.2179C21.6644 12.9997 21.7965 11.6593 21.5392 10.3661C21.282 9.07286 20.647 7.88497 19.7147 6.95262C18.7823 6.02027 17.5945 5.38534 16.3013 5.1281C15.008 4.87087 13.6676 5.00289 12.4494 5.50747C11.2313 6.01206 10.1901 6.86654 9.45752 7.96287C8.72498 9.0592 8.33398 10.3481 8.33398 11.6667C8.33398 13.4348 9.03636 15.1305 10.2866 16.3807C11.5368 17.631 13.2325 18.3333 15.0007 18.3333Z" fill="#FCCB06"/>
<path d="M28.334 21.6668C29.3229 21.6668 30.2896 21.3735 31.1118 20.8241C31.9341 20.2747 32.5749 19.4938 32.9534 18.5802C33.3318 17.6665 33.4308 16.6612 33.2379 15.6913C33.045 14.7214 32.5688 13.8305 31.8695 13.1312C31.1703 12.432 30.2793 11.9558 29.3094 11.7628C28.3395 11.5699 27.3342 11.6689 26.4206 12.0474C25.5069 12.4258 24.726 13.0667 24.1766 13.8889C23.6272 14.7111 23.334 15.6778 23.334 16.6668C23.334 17.9928 23.8608 19.2646 24.7984 20.2023C25.7361 21.14 27.0079 21.6668 28.334 21.6668Z" fill="#FCCB06"/>
<path d="M35.0007 33.3334C35.4427 33.3334 35.8666 33.1578 36.1792 32.8452C36.4917 32.5327 36.6673 32.1087 36.6673 31.6667C36.666 30.109 36.2281 28.5829 35.4033 27.2615C34.5786 25.9401 33.4 24.8763 32.0012 24.1908C30.6025 23.5053 29.0396 23.2256 27.49 23.3834C25.9403 23.5411 24.4659 24.1301 23.234 25.0834C21.6015 23.4573 19.5241 22.351 17.2637 21.9041C15.0033 21.4571 12.6612 21.6895 10.5327 22.5719C8.40421 23.4544 6.58467 24.9473 5.30355 26.8624C4.02243 28.7776 3.3371 31.0292 3.33398 33.3334C3.33398 33.7754 3.50958 34.1993 3.82214 34.5119C4.1347 34.8245 4.55862 35.0001 5.00065 35.0001H25.0007C25.4427 35.0001 25.8666 34.8245 26.1792 34.5119C26.4917 34.1993 26.6673 33.7754 26.6673 33.3334" fill="#FCCB06"/>
</svg>
